<?xml version="1.0" encoding="UTF-8" standalone="no"?>
<!-- Created with Inkscape (http://www.inkscape.org/) -->

<svg
   xmlns:dc="http://purl.org/dc/elements/1.1/"
   xmlns:cc="http://creativecommons.org/ns#"
   xmlns:rdf="http://www.w3.org/1999/02/22-rdf-syntax-ns#"
   xmlns:svg="http://www.w3.org/2000/svg"
   xmlns="http://www.w3.org/2000/svg"
   xmlns:sodipodi="http://sodipodi.sourceforge.net/DTD/sodipodi-0.dtd"
   xmlns:inkscape="http://www.inkscape.org/namespaces/inkscape"
   width="500"
   height="500"
   viewBox="0 0 132.29166 132.29167"
   version="1.1"
   id="svg6426"
   inkscape:version="0.92.4 (5da689c313, 2019-01-14)"
   sodipodi:docname="5.svg">
  <defs
     id="defs6420">
    <clipPath
       clipPathUnits="userSpaceOnUse"
       id="clipPath3729">
      <path
         d="M 0,50.167 H 100.167 V 0 H 0 Z"
         id="path3727"
         inkscape:connector-curvature="0" />
    </clipPath>
    <linearGradient
       x1="0"
       y1="0"
       x2="1"
       y2="0"
       gradientUnits="userSpaceOnUse"
       gradientTransform="matrix(11.889893,42.840866,42.840866,-11.889893,8.5166016,37.187988)"
       spreadMethod="pad"
       id="linearGradient3862">
      <stop
         style="stop-opacity:1;stop-color:#2e3192"
         offset="0"
         id="stop3856" />
      <stop
         style="stop-opacity:1;stop-color:#2e3192"
         offset="0.241348"
         id="stop3858" />
      <stop
         style="stop-opacity:1;stop-color:#67cef2"
         offset="1"
         id="stop3860" />
    </linearGradient>
    <clipPath
       clipPathUnits="userSpaceOnUse"
       id="clipPath3872">
      <path
         d="M 0,97.667 H 217.667 V 0 H 0 Z"
         id="path3870"
         inkscape:connector-curvature="0" />
    </clipPath>
    <clipPath
       clipPathUnits="userSpaceOnUse"
       id="clipPath3880">
      <path
         d="M 5.05518,92.0244 H 18.8237 V 33.5342 H 5.05518 Z"
         id="path3878"
         inkscape:connector-curvature="0" />
    </clipPath>
    <clipPath
       clipPathUnits="userSpaceOnUse"
       id="clipPath3884">
      <path
         d="M 2.66553,92.0244 H 18.8237 V 33.5342 H 2.66553 Z"
         id="path3882"
         inkscape:connector-curvature="0" />
    </clipPath>
    <clipPath
       clipPathUnits="userSpaceOnUse"
       id="clipPath3888">
      <path
         d="m 6.007,64.249 c 1.477,5.23 4.616,7.421 6.39,12.55 1.77,5.143 4.056,11.287 0.314,15.225 l 2.247,-1.799 C 17.537,87.71 18.123,79.239 16.436,72.903 13.74,62.778 3.078,53.418 18.824,33.534 18.808,33.555 18.767,33.57 18.707,33.594 8.408,39.635 2.666,52.368 6.007,64.249"
         id="path3886"
         inkscape:connector-curvature="0" />
    </clipPath>
    <clipPath
       clipPathUnits="userSpaceOnUse"
       id="clipPath3892">
      <path
         d="M -24397.7,24582 H 8368.33 V -8184 H -24397.7 Z"
         id="path3890"
         inkscape:connector-curvature="0" />
    </clipPath>
    <clipPath
       clipPathUnits="userSpaceOnUse"
       id="clipPath3896">
      <path
         d="M -24397.7,24582 H 8368.33 V -8184 H -24397.7 Z"
         id="path3894"
         inkscape:connector-curvature="0" />
    </clipPath>
    <mask
       maskUnits="userSpaceOnUse"
       x="0"
       y="0"
       width="1"
       height="1"
       id="mask3898">
      <g
         id="g3910">
        <g
           clip-path="url(#clipPath3892)"
           id="g3908">
          <g
             id="g3906">
            <g
               id="g3900" />
            <g
               id="g3904">
              <g
                 clip-path="url(#clipPath3896)"
                 id="g3902" />
            </g>
          </g>
        </g>
      </g>
    </mask>
    <linearGradient
       x1="0"
       y1="0"
       x2="1"
       y2="0"
       gradientUnits="userSpaceOnUse"
       gradientTransform="matrix(-9.4640656,1.4280853,1.4280853,9.4640656,18.783203,62.324219)"
       spreadMethod="pad"
       id="linearGradient3920">
      <stop
         style="stop-opacity:1;stop-color:#ffffff"
         offset="0"
         id="stop3912" />
      <stop
         style="stop-opacity:1;stop-color:#ffffff"
         offset="0.0243225"
         id="stop3914" />
      <stop
         style="stop-opacity:1;stop-color:#231f20"
         offset="0.99047375"
         id="stop3916" />
      <stop
         style="stop-opacity:1;stop-color:#231f20"
         offset="1"
         id="stop3918" />
    </linearGradient>
    <mask
       maskUnits="userSpaceOnUse"
       x="0"
       y="0"
       width="1"
       height="1"
       id="mask3922">
      <g
         id="g3948">
        <g
           clip-path="url(#clipPath3880)"
           id="g3946"
           style="opacity:0.42999303">
          <g
             id="g3944">
            <g
               id="g3924" />
            <g
               id="g3942">
              <g
                 clip-path="url(#clipPath3884)"
                 id="g3940">
                <g
                   id="g3938">
                  <g
                     clip-path="url(#clipPath3888)"
                     id="g3936">
                    <g
                       id="g3934">
                      <g
                         id="g3926" />
                      <g
                         mask="url(#mask3898)"
                         id="g3932">
                        <g
                           id="g3930">
                          <path
                             d="m 6.007,64.249 c 1.477,5.23 4.616,7.421 6.39,12.55 1.77,5.143 4.056,11.287 0.314,15.225 l 2.247,-1.799 C 17.537,87.71 18.123,79.239 16.436,72.903 13.74,62.778 3.078,53.418 18.824,33.534 18.808,33.555 18.767,33.57 18.707,33.594 8.408,39.635 2.666,52.368 6.007,64.249"
                             style="fill:url(#linearGradient3920);stroke:none"
                             id="path3928"
                             inkscape:connector-curvature="0" />
                        </g>
                      </g>
                    </g>
                  </g>
                </g>
              </g>
            </g>
          </g>
        </g>
      </g>
    </mask>
    <clipPath
       clipPathUnits="userSpaceOnUse"
       id="clipPath3956">
      <path
         d="M 5.05518,92.0244 H 18.8237 V 33.5342 H 5.05518 Z"
         id="path3954"
         inkscape:connector-curvature="0" />
    </clipPath>
    <linearGradient
       x1="0"
       y1="0"
       x2="1"
       y2="0"
       gradientUnits="userSpaceOnUse"
       gradientTransform="matrix(-9.4640656,1.4280853,1.4280853,9.4640656,18.783203,62.324219)"
       spreadMethod="pad"
       id="linearGradient3970">
      <stop
         style="stop-opacity:1;stop-color:#30225e"
         offset="0"
         id="stop3962" />
      <stop
         style="stop-opacity:1;stop-color:#30225e"
         offset="0.0243225"
         id="stop3964" />
      <stop
         style="stop-opacity:1;stop-color:#30225e"
         offset="0.99047375"
         id="stop3966" />
      <stop
         style="stop-opacity:1;stop-color:#30225e"
         offset="1"
         id="stop3968" />
    </linearGradient>
    <linearGradient
       x1="0"
       y1="0"
       x2="1"
       y2="0"
       gradientUnits="userSpaceOnUse"
       gradientTransform="matrix(-16.375748,-9.4450684,-9.4450684,16.375748,28.793457,46.58252)"
       spreadMethod="pad"
       id="linearGradient4006">
      <stop
         style="stop-opacity:1;stop-color:#80cc28"
         offset="0"
         id="stop3998" />
      <stop
         style="stop-opacity:1;stop-color:#03a3a3"
         offset="0.996964"
         id="stop4000" />
      <stop
         style="stop-opacity:1;stop-color:#03a3a3"
         offset="0.99844715"
         id="stop4002" />
      <stop
         style="stop-opacity:1;stop-color:#03a3a3"
         offset="1"
         id="stop4004" />
    </linearGradient>
    <clipPath
       clipPathUnits="userSpaceOnUse"
       id="clipPath4016">
      <path
         d="M 0,97.667 H 217.667 V 0 H 0 Z"
         id="path4014"
         inkscape:connector-curvature="0" />
    </clipPath>
    <clipPath
       clipPathUnits="userSpaceOnUse"
       id="clipPath4024">
      <path
         d="M 5.33447,52.2842 H 35.7534 V 30.3037 H 5.33447 Z"
         id="path4022"
         inkscape:connector-curvature="0" />
    </clipPath>
    <clipPath
       clipPathUnits="userSpaceOnUse"
       id="clipPath4028">
      <path
         d="M 5.33447,52.2842 H 35.7534 V 30.3037 H 5.33447 Z"
         id="path4026"
         inkscape:connector-curvature="0" />
    </clipPath>
    <clipPath
       clipPathUnits="userSpaceOnUse"
       id="clipPath4032">
      <path
         d="M 35.753,30.979 34.094,30.304 C 31.361,33.752 26.031,31.529 22.295,32.342 14.381,34.057 7.404,42.985 5.334,52.284 6.327,50.553 9.115,42.84 16.509,38.714 24.072,34.493 33.329,37.9 35.753,30.979"
         id="path4030"
         inkscape:connector-curvature="0" />
    </clipPath>
    <clipPath
       clipPathUnits="userSpaceOnUse"
       id="clipPath4036">
      <path
         d="M -24397.7,24582 H 8368.33 V -8184 H -24397.7 Z"
         id="path4034"
         inkscape:connector-curvature="0" />
    </clipPath>
    <clipPath
       clipPathUnits="userSpaceOnUse"
       id="clipPath4040">
      <path
         d="M -24397.7,24582 H 8368.33 V -8184 H -24397.7 Z"
         id="path4038"
         inkscape:connector-curvature="0" />
    </clipPath>
    <mask
       maskUnits="userSpaceOnUse"
       x="0"
       y="0"
       width="1"
       height="1"
       id="mask4042">
      <g
         id="g4054">
        <g
           clip-path="url(#clipPath4036)"
           id="g4052">
          <g
             id="g4050">
            <g
               id="g4044" />
            <g
               id="g4048">
              <g
                 clip-path="url(#clipPath4040)"
                 id="g4046" />
            </g>
          </g>
        </g>
      </g>
    </mask>
    <linearGradient
       x1="0"
       y1="0"
       x2="1"
       y2="0"
       gradientUnits="userSpaceOnUse"
       gradientTransform="matrix(-14.908966,-8.5990753,-8.5990753,14.908966,27.458008,45.619629)"
       spreadMethod="pad"
       id="linearGradient4062">
      <stop
         style="stop-opacity:1;stop-color:#ffffff"
         offset="0"
         id="stop4056" />
      <stop
         style="stop-opacity:1;stop-color:#231f20"
         offset="0.954407"
         id="stop4058" />
      <stop
         style="stop-opacity:1;stop-color:#231f20"
         offset="1"
         id="stop4060" />
    </linearGradient>
    <mask
       maskUnits="userSpaceOnUse"
       x="0"
       y="0"
       width="1"
       height="1"
       id="mask4064">
      <g
         id="g4090">
        <g
           clip-path="url(#clipPath4024)"
           id="g4088">
          <g
             id="g4086">
            <g
               id="g4066" />
            <g
               id="g4084">
              <g
                 clip-path="url(#clipPath4028)"
                 id="g4082">
                <g
                   id="g4080">
                  <g
                     clip-path="url(#clipPath4032)"
                     id="g4078">
                    <g
                       id="g4076">
                      <g
                         id="g4068" />
                      <g
                         mask="url(#mask4042)"
                         id="g4074">
                        <g
                           id="g4072">
                          <path
                             d="M 35.753,30.979 34.094,30.304 C 31.361,33.752 26.031,31.529 22.295,32.342 14.381,34.057 7.404,42.985 5.334,52.284 6.327,50.553 9.115,42.84 16.509,38.714 24.072,34.493 33.329,37.9 35.753,30.979"
                             style="fill:url(#linearGradient4062);stroke:none"
                             id="path4070"
                             inkscape:connector-curvature="0" />
                        </g>
                      </g>
                    </g>
                  </g>
                </g>
              </g>
            </g>
          </g>
        </g>
      </g>
    </mask>
    <clipPath
       clipPathUnits="userSpaceOnUse"
       id="clipPath4098">
      <path
         d="M 5.33447,52.2842 H 35.7534 V 30.3037 H 5.33447 Z"
         id="path4096"
         inkscape:connector-curvature="0" />
    </clipPath>
    <linearGradient
       x1="0"
       y1="0"
       x2="1"
       y2="0"
       gradientUnits="userSpaceOnUse"
       gradientTransform="matrix(-14.908966,-8.5990753,-8.5990753,14.908966,27.458008,45.619629)"
       spreadMethod="pad"
       id="linearGradient4110">
      <stop
         style="stop-opacity:1;stop-color:#4fc18b"
         offset="0"
         id="stop4104" />
      <stop
         style="stop-opacity:1;stop-color:#4fc18b"
         offset="0.954407"
         id="stop4106" />
      <stop
         style="stop-opacity:1;stop-color:#4fc18b"
         offset="1"
         id="stop4108" />
    </linearGradient>
  </defs>
  <sodipodi:namedview
     id="base"
     pagecolor="#ffffff"
     bordercolor="#666666"
     borderopacity="1.0"
     inkscape:pageopacity="0.0"
     inkscape:pageshadow="2"
     inkscape:zoom="0.35"
     inkscape:cx="325.78007"
     inkscape:cy="-20.321512"
     inkscape:document-units="mm"
     inkscape:current-layer="layer1"
     showgrid="false"
     units="px"
     inkscape:window-width="1920"
     inkscape:window-height="1017"
     inkscape:window-x="-8"
     inkscape:window-y="-8"
     inkscape:window-maximized="1" />
  <metadata
     id="metadata6423">
    <rdf:RDF>
      <cc:Work
         rdf:about="">
        <dc:format>image/svg+xml</dc:format>
        <dc:type
           rdf:resource="http://purl.org/dc/dcmitype/StillImage" />
        <dc:title></dc:title>
      </cc:Work>
    </rdf:RDF>
  </metadata>
  <g
     inkscape:label="Capa 1"
     inkscape:groupmode="layer"
     id="layer1"
     transform="translate(-19.637356,-11.164929)">
    <g
       transform="matrix(0.50634279,0,0,0.50634279,32.78148,49.000519)"
       id="layer1-1"
       inkscape:label="Capa 1">
      <g
         id="g3721"
         inkscape:label="Logo brilla correos"
         transform="matrix(2.0296821,0,0,-2.0296821,2.389544,107.50984)">
        <g
           id="g3723">
          <g
             id="g3725"
             clip-path="url(#clipPath3729)">
            <g
               id="g3731"
               transform="translate(54.4658,43.6616)">
              <path
                 d="m 0,0 c 0,-3.202 -2.596,-5.796 -5.797,-5.796 -3.2,0 -5.793,2.594 -5.793,5.796 0,3.201 2.593,5.795 5.793,5.795 C -2.596,5.795 0,3.201 0,0"
                 style="fill:#f9ae18;fill-opacity:1;fill-rule:nonzero;stroke:none"
                 id="path3733"
                 inkscape:connector-curvature="0" />
            </g>
            <g
               id="g3735"
               transform="translate(14.3916,24.21)">
              <path
                 d="m 0,0 h -5.655 c 0,0 -0.139,-0.004 -0.182,0.036 -0.055,0.05 -0.046,0.154 -0.046,0.154 v 6.026 c 0,0 -0.005,0.136 0.047,0.179 0.053,0.042 0.193,0.035 0.193,0.035 h 4.886 C 2.311,6.43 3.696,5.336 3.696,3.067 3.696,1.176 2.352,0 0,0 m -5.83,17.872 c 0.053,0.034 0.18,0.029 0.18,0.029 h 4.935 c 2.227,0 3.486,-1.008 3.486,-2.733 0,-1.889 -1.259,-2.814 -3.99,-2.814 h -4.422 c 0,0 -0.157,-0.008 -0.206,0.043 -0.044,0.047 -0.036,0.183 -0.036,0.183 v 5.099 c 0,0 -0.009,0.151 0.053,0.193 M 6.219,9.159 c -0.63,0.254 -0.589,0.632 0.043,0.885 1.133,0.543 3.36,2.143 3.36,5.841 0,4.999 -3.867,7.983 -10.337,7.983 h -11.428 c -0.339,0 -0.548,-0.209 -0.548,-0.547 V -5.38 c 0,-0.336 0.209,-0.545 0.548,-0.545 H 0.084 c 6.598,0 10.464,3.108 10.464,8.361 0,4.287 -2.775,6.137 -4.329,6.723"
                 style="fill:#ee253c;fill-opacity:1;fill-rule:nonzero;stroke:none"
                 id="path3737"
                 inkscape:connector-curvature="0" />
            </g>
            <g
               id="g3739"
               transform="translate(40.4634,39.3789)">
              <path
                 d="m 0,0 c -2.948,-0.083 -4.63,-0.756 -6.439,-2.652 -0.506,-0.546 -0.675,-0.419 -1.056,0.126 l -1.095,1.683 c -0.151,0.253 -0.334,0.381 -0.629,0.381 h -2.99 c -0.336,0 -0.547,-0.212 -0.547,-0.546 v -19.577 c 0,-0.336 0.209,-0.547 0.547,-0.547 h 5.6 c 0.337,0 0.547,0.211 0.547,0.547 v 3.41 c 0,8.42 1.432,11.03 6.062,11.24 0.379,0 0.546,0.167 0.546,0.547 v 4.842 C 0.546,-0.208 0.336,0 0,0"
                 style="fill:#ee253c;fill-opacity:1;fill-rule:nonzero;stroke:none"
                 id="path3741"
                 inkscape:connector-curvature="0" />
            </g>
            <g
               id="g3743"
               transform="translate(66.6172,23.6152)">
              <path
                 d="m 0,0 c -0.126,0.294 -0.377,0.377 -0.714,0.294 h -0.254 c -0.378,0 -0.549,0.336 -0.549,0.799 v 23.639 c 0,0.336 -0.212,0.547 -0.546,0.547 h -5.599 c -0.335,0 -0.548,-0.211 -0.548,-0.547 V 1.093 c 0,-4.208 2.735,-6.694 7.242,-6.694 0.759,0 1.684,0.17 2.443,0.505 0.293,0.127 0.379,0.379 0.252,0.717 z"
                 style="fill:#ee253c;fill-opacity:1;fill-rule:nonzero;stroke:none"
                 id="path3745"
                 inkscape:connector-curvature="0" />
            </g>
            <g
               id="g3747"
               transform="translate(78.1387,23.6152)">
              <path
                 d="m 0,0 c -0.125,0.294 -0.378,0.377 -0.716,0.294 h -0.252 c -0.38,0 -0.547,0.336 -0.547,0.799 v 23.639 c 0,0.336 -0.212,0.547 -0.548,0.547 h -5.598 c -0.337,0 -0.547,-0.211 -0.547,-0.547 V 1.093 c 0,-4.208 2.735,-6.694 7.24,-6.694 0.758,0 1.687,0.17 2.441,0.505 0.297,0.127 0.379,0.379 0.255,0.717 z"
                 style="fill:#ee253c;fill-opacity:1;fill-rule:nonzero;stroke:none"
                 id="path3749"
                 inkscape:connector-curvature="0" />
            </g>
            <g
               id="g3751"
               transform="translate(44.0166,38.1826)">
              <path
                 d="m 0,0 c -0.033,-0.017 -0.054,-0.048 -0.054,-0.085 v -4.486 c 0,-0.338 0.21,-0.547 0.547,-0.547 H 2.404 C 2.52,-5.119 2.605,-5.115 2.65,-5.165 2.696,-5.217 2.682,-5.351 2.683,-5.44 v -13.949 c 0,-0.336 0.21,-0.547 0.546,-0.547 h 5.558 c 0.336,0 0.548,0.211 0.548,0.547 v 19.301 c 0,0.042 -0.035,0.1 -0.094,0.1 -0.06,0 -0.086,-0.033 -0.118,-0.063 -0.954,-0.865 -2.47,-1.707 -4.444,-1.707 -1.965,0 -3.283,0.675 -4.551,1.733 C 0.102,-0.004 0.055,0.025 0,0"
                 style="fill:#ee253c;fill-opacity:1;fill-rule:nonzero;stroke:none"
                 id="path3753"
                 inkscape:connector-curvature="0" />
            </g>
            <g
               id="g3755"
               transform="translate(92.9443,26.5635)">
              <path
                 d="m 0,0 c -0.254,-2.314 -1.474,-3.367 -3.662,-3.367 -1.516,0 -2.4,0.674 -2.4,1.851 0,0.926 0.884,1.6 2.105,1.6 h 3.894 c 0,0 0.04,0 0.052,-0.021 C 0.006,0.038 0,0 0,0 m -3.789,12.881 c -1.601,0 -3.074,-0.253 -4.629,-0.674 l -1.643,-0.462 c -0.379,-0.084 -0.505,-0.297 -0.379,-0.674 l 1.305,-4.379 c 0.126,-0.336 0.337,-0.463 0.673,-0.378 l 1.599,0.463 c 0.926,0.252 1.895,0.421 2.737,0.421 2.398,0 3.957,-1.052 4.126,-2.862 V 4.252 h -3.957 c -5.221,0 -8.335,-2.315 -8.335,-6.23 0,-4.252 2.989,-6.582 7.997,-6.582 1.77,0 3.452,0.478 4.547,1.447 0.716,0.591 1.095,0.505 1.348,0 l 0.379,-0.758 c 0.167,-0.253 0.335,-0.378 0.672,-0.378 h 3.158 c 0.336,0 0.546,0.209 0.546,0.547 V 4.715 c 0,5.135 -3.746,8.166 -10.144,8.166"
                 style="fill:#ee253c;fill-opacity:1;fill-rule:nonzero;stroke:none"
                 id="path3757"
                 inkscape:connector-curvature="0" />
            </g>
            <g
               id="g3759"
               transform="translate(7.0127,10.7168)">
              <path
                 d="m 0,0 c 0.126,-0.128 0.183,-0.3 0.183,-0.448 0,-0.173 -0.126,-0.333 -0.252,-0.426 -0.355,0.298 -1.078,0.632 -2.306,0.632 -1.217,0 -1.699,-0.528 -1.699,-1.194 0,-0.711 0.494,-1.101 2.043,-1.548 1.721,-0.459 2.524,-1.022 2.536,-2.365 0.011,-1.331 -0.895,-2.214 -2.812,-2.214 -1.044,0 -1.836,0.241 -2.318,0.538 -0.344,0.219 -0.516,0.448 -0.516,0.678 0,0.218 0.08,0.367 0.161,0.459 0.574,-0.493 1.606,-0.792 2.639,-0.792 1.445,0 1.974,0.574 1.974,1.296 0,0.746 -0.448,1.148 -1.951,1.572 -1.928,0.529 -2.628,1.08 -2.628,2.387 0,1.205 0.803,2.123 2.571,2.123 C -1.033,0.698 -0.333,0.319 0,0"
                 style="fill:#5e6267;fill-opacity:1;fill-rule:nonzero;stroke:none"
                 id="path3761"
                 inkscape:connector-curvature="0" />
            </g>
            <g
               id="g3763"
               transform="translate(12.9194,4.1748)">
              <path
                 d="m 0,0 v 0.103 c -0.527,-0.688 -1.228,-1.124 -2.042,-1.124 -0.906,0 -1.538,0.47 -1.538,1.846 v 2.687 c 0,0.217 -0.092,0.309 -0.263,0.309 h -0.505 c -0.023,0.103 -0.047,0.207 -0.047,0.367 0.012,0.299 0.356,0.437 0.884,0.437 0.597,0 0.85,-0.219 0.85,-0.804 v -2.8 c 0,-0.826 0.344,-1.159 0.883,-1.159 0.769,0 1.332,0.448 1.778,1.217 V 4.521 C 0.127,4.59 0.31,4.625 0.494,4.625 0.792,4.625 0.918,4.497 0.918,4.28 V 0.161 c 0,-0.252 0.104,-0.322 0.264,-0.322 H 1.607 C 1.618,-0.229 1.642,-0.299 1.642,-0.448 1.642,-0.723 1.343,-0.907 0.781,-0.907 0.356,-0.907 0,-0.734 0,0"
                 style="fill:#5e6267;fill-opacity:1;fill-rule:nonzero;stroke:none"
                 id="path3765"
                 inkscape:connector-curvature="0" />
            </g>
            <g
               id="g3767"
               transform="translate(16.9907,7.8467)">
              <path
                 d="m 0,0 v -0.058 c 0.471,0.609 1.148,1.125 1.791,1.125 0.619,0 0.986,-0.309 0.986,-0.964 0,-0.469 -0.206,-0.63 -0.504,-0.63 -0.138,0 -0.265,0.068 -0.334,0.137 0,0.298 -0.126,0.504 -0.504,0.504 C 0.941,0.114 0.402,-0.287 0,-0.884 v -3.591 c -0.08,-0.069 -0.264,-0.104 -0.482,-0.104 -0.217,0 -0.413,0.058 -0.413,0.413 v 3.949 c 0,0.24 -0.103,0.355 -0.286,0.355 h -0.425 c -0.046,0.126 -0.069,0.23 -0.069,0.379 0,0.241 0.298,0.436 0.792,0.436 C -0.333,0.953 0,0.723 0,0"
                 style="fill:#5e6267;fill-opacity:1;fill-rule:nonzero;stroke:none"
                 id="path3769"
                 inkscape:connector-curvature="0" />
            </g>
            <g
               id="g3771"
               transform="translate(21.9014,8.0537)">
              <path
                 d="m 0,0 v -3.156 c 0,-0.689 0.241,-0.861 0.7,-0.861 h 1.102 c 0.034,-0.08 0.057,-0.137 0.057,-0.252 0,-0.298 -0.264,-0.517 -1.388,-0.517 -0.758,0 -1.308,0.31 -1.308,1.425 V 0 h -0.678 c -0.057,0.08 -0.091,0.183 -0.091,0.32 0,0.266 0.08,0.426 0.378,0.426 h 0.391 v 1.502 c 0.08,0.047 0.263,0.093 0.447,0.093 C -0.161,2.341 0,2.227 0,1.962 V 0.746 H 1.755 C 1.813,0.688 1.836,0.597 1.836,0.448 1.836,0.264 1.778,0 1.4,0 Z"
                 style="fill:#5e6267;fill-opacity:1;fill-rule:nonzero;stroke:none"
                 id="path3773"
                 inkscape:connector-curvature="0" />
            </g>
            <g
               id="g3775"
               transform="translate(25.6514,10.9443)">
              <path
                 d="m 0,0 c 0.367,0 0.563,-0.195 0.563,-0.572 0,-0.38 -0.196,-0.551 -0.563,-0.551 -0.367,0 -0.562,0.183 -0.562,0.551 C -0.562,-0.195 -0.378,0 0,0 m 0.54,-3.04 v -3.627 c 0,-0.217 0.103,-0.298 0.264,-0.298 h 0.333 c 0.045,-0.068 0.068,-0.149 0.068,-0.287 0,-0.264 -0.218,-0.425 -0.769,-0.425 -0.47,0 -0.757,0.208 -0.757,0.781 v 3.615 c 0,0.253 -0.115,0.321 -0.286,0.321 H -0.94 c -0.046,0.081 -0.07,0.195 -0.07,0.345 0,0.333 0.31,0.47 0.735,0.47 0.504,0 0.815,-0.172 0.815,-0.895"
                 style="fill:#5e6267;fill-opacity:1;fill-rule:nonzero;stroke:none"
                 id="path3777"
                 inkscape:connector-curvature="0" />
            </g>
            <g
               id="g3779"
               transform="translate(30.0454,5.3682)">
              <path
                 d="m 0,0 c 0.677,0 1.137,0.356 1.137,1.39 0,0.986 -0.414,1.422 -1.091,1.422 -0.712,0 -1.181,-0.459 -1.181,-1.422 C -1.135,0.356 -0.688,0 0,0 M 1.699,2.742 C 1.905,2.41 2.02,1.963 2.02,1.411 c 0,-1.537 -0.85,-2.11 -2.031,-2.11 -0.356,0 -0.677,0.055 -0.965,0.172 -0.091,-0.219 -0.149,-0.426 -0.149,-0.62 0,-0.391 0.196,-0.621 0.872,-0.621 h 1.757 c 0.86,0 1.273,-0.482 1.273,-1.193 0,-1.227 -1.01,-2.03 -2.685,-2.03 -1.354,0 -2.249,0.632 -2.249,1.136 0,0.16 0.115,0.355 0.275,0.47 0.38,-0.47 0.999,-0.849 1.951,-0.849 1.217,0 1.928,0.46 1.928,1.159 0,0.309 -0.173,0.562 -0.689,0.562 h -1.709 c -1.101,0 -1.504,0.412 -1.504,1.102 0,0.448 0.218,0.894 0.436,1.216 -0.344,0.333 -0.539,0.86 -0.539,1.606 0,1.47 0.873,2.135 2.043,2.135 0.47,0 0.883,-0.103 1.204,-0.333 0.057,0.114 0.196,0.219 0.414,0.219 H 2.582 C 2.627,3.374 2.663,3.271 2.663,3.122 2.663,2.926 2.605,2.742 2.249,2.742 Z"
                 style="fill:#5e6267;fill-opacity:1;fill-rule:nonzero;stroke:none"
                 id="path3781"
                 inkscape:connector-curvature="0" />
            </g>
            <g
               id="g3783"
               transform="translate(37.0664,4.8066)">
              <path
                 d="M 0,0 V 1.077 L -1.894,0.895 c -0.584,-0.058 -0.814,-0.357 -0.814,-0.85 0,-0.504 0.275,-0.941 0.85,-0.941 0.642,0 1.215,0.298 1.858,0.896 m -3.052,3.271 c 0,0.549 1.09,0.836 1.893,0.836 1.033,0 1.929,-0.423 1.929,-1.664 v -2.949 c 0,-0.287 0.102,-0.401 0.286,-0.401 h 0.321 c 0.035,-0.046 0.069,-0.15 0.069,-0.299 0,-0.218 -0.229,-0.333 -0.734,-0.333 C 0.276,-1.539 0,-1.217 0,-0.746 V -0.7 c -0.562,-0.552 -1.262,-0.953 -1.985,-0.953 -1.021,0 -1.515,0.711 -1.515,1.71 0,0.894 0.517,1.491 1.561,1.549 L 0,1.721 v 0.494 c 0,0.848 -0.562,1.089 -1.193,1.089 -0.688,0 -1.4,-0.206 -1.698,-0.402 -0.092,0.08 -0.161,0.219 -0.161,0.369"
                 style="fill:#5e6267;fill-opacity:1;fill-rule:nonzero;stroke:none"
                 id="path3785"
                 inkscape:connector-curvature="0" />
            </g>
            <g
               id="g3787"
               transform="translate(43.3296,8.042)">
              <path
                 d="m 0,0 c 0,-0.219 -0.08,-0.391 -0.206,-0.459 -0.253,0.229 -0.919,0.447 -1.71,0.447 -0.803,0 -1.102,-0.333 -1.102,-0.722 0,-0.483 0.402,-0.69 1.32,-0.861 1.343,-0.23 1.893,-0.713 1.893,-1.687 0,-1.01 -0.676,-1.607 -2.042,-1.607 -1.239,0 -2.088,0.471 -2.088,0.884 0,0.24 0.057,0.368 0.183,0.483 0.333,-0.254 1.17,-0.574 1.848,-0.574 0.964,0 1.296,0.367 1.296,0.802 0,0.518 -0.356,0.746 -1.296,0.919 -1.389,0.24 -1.905,0.664 -1.905,1.686 0,0.883 0.642,1.561 1.916,1.561 C -0.63,0.872 0,0.378 0,0"
                 style="fill:#5e6267;fill-opacity:1;fill-rule:nonzero;stroke:none"
                 id="path3789"
                 inkscape:connector-curvature="0" />
            </g>
          </g>
        </g>
      </g>
    </g>
  </g>
</svg>
