<?xml version="1.0" encoding="UTF-8" standalone="no"?>
<!-- Created with Inkscape (http://www.inkscape.org/) -->

<svg
   xmlns:dc="http://purl.org/dc/elements/1.1/"
   xmlns:cc="http://creativecommons.org/ns#"
   xmlns:rdf="http://www.w3.org/1999/02/22-rdf-syntax-ns#"
   xmlns:svg="http://www.w3.org/2000/svg"
   xmlns="http://www.w3.org/2000/svg"
   xmlns:sodipodi="http://sodipodi.sourceforge.net/DTD/sodipodi-0.dtd"
   xmlns:inkscape="http://www.inkscape.org/namespaces/inkscape"
   width="198.09433mm"
   height="99.615578mm"
   viewBox="0 0 198.09433 99.615578"
   version="1.1"
   id="svg8"
   inkscape:version="0.92.4 (5da689c313, 2019-01-14)"
   sodipodi:docname="Brilla.svg">
  <defs
     id="defs2">
    <clipPath
       id="clipPath3729"
       clipPathUnits="userSpaceOnUse">
      <path
         inkscape:connector-curvature="0"
         id="path3727"
         d="M 0,50.167 H 100.167 V 0 H 0 Z" />
    </clipPath>
  </defs>
  <sodipodi:namedview
     id="base"
     pagecolor="#ffffff"
     bordercolor="#666666"
     borderopacity="1.0"
     inkscape:pageopacity="0.0"
     inkscape:pageshadow="2"
     inkscape:zoom="0.7"
     inkscape:cx="383.42308"
     inkscape:cy="188.50296"
     inkscape:document-units="mm"
     inkscape:current-layer="layer1"
     showgrid="false"
     inkscape:window-width="1920"
     inkscape:window-height="1017"
     inkscape:window-x="-8"
     inkscape:window-y="-8"
     inkscape:window-maximized="1" />
  <metadata
     id="metadata5">
    <rdf:RDF>
      <cc:Work
         rdf:about="">
        <dc:format>image/svg+xml</dc:format>
        <dc:type
           rdf:resource="http://purl.org/dc/dcmitype/StillImage" />
        <dc:title></dc:title>
      </cc:Work>
    </rdf:RDF>
  </metadata>
  <g
     inkscape:label="Capa 1"
     inkscape:groupmode="layer"
     id="layer1"
     transform="translate(-5.8412214,-7.1286643)">
    <g
       transform="matrix(2.0296821,0,0,-2.0296821,2.389544,107.50984)"
       inkscape:label="Logo brilla correos"
       id="g3721">
      <g
         id="g3723">
        <g
           clip-path="url(#clipPath3729)"
           id="g3725">
          <g
             transform="translate(54.4658,43.6616)"
             id="g3731">
            <path
               inkscape:connector-curvature="0"
               id="path3733"
               style="fill:#f9ae18;fill-opacity:1;fill-rule:nonzero;stroke:none"
               d="m 0,0 c 0,-3.202 -2.596,-5.796 -5.797,-5.796 -3.2,0 -5.793,2.594 -5.793,5.796 0,3.201 2.593,5.795 5.793,5.795 C -2.596,5.795 0,3.201 0,0" />
          </g>
          <g
             transform="translate(14.3916,24.21)"
             id="g3735">
            <path
               inkscape:connector-curvature="0"
               id="path3737"
               style="fill:#ee253c;fill-opacity:1;fill-rule:nonzero;stroke:none"
               d="m 0,0 h -5.655 c 0,0 -0.139,-0.004 -0.182,0.036 -0.055,0.05 -0.046,0.154 -0.046,0.154 v 6.026 c 0,0 -0.005,0.136 0.047,0.179 0.053,0.042 0.193,0.035 0.193,0.035 h 4.886 C 2.311,6.43 3.696,5.336 3.696,3.067 3.696,1.176 2.352,0 0,0 m -5.83,17.872 c 0.053,0.034 0.18,0.029 0.18,0.029 h 4.935 c 2.227,0 3.486,-1.008 3.486,-2.733 0,-1.889 -1.259,-2.814 -3.99,-2.814 h -4.422 c 0,0 -0.157,-0.008 -0.206,0.043 -0.044,0.047 -0.036,0.183 -0.036,0.183 v 5.099 c 0,0 -0.009,0.151 0.053,0.193 M 6.219,9.159 c -0.63,0.254 -0.589,0.632 0.043,0.885 1.133,0.543 3.36,2.143 3.36,5.841 0,4.999 -3.867,7.983 -10.337,7.983 h -11.428 c -0.339,0 -0.548,-0.209 -0.548,-0.547 V -5.38 c 0,-0.336 0.209,-0.545 0.548,-0.545 H 0.084 c 6.598,0 10.464,3.108 10.464,8.361 0,4.287 -2.775,6.137 -4.329,6.723" />
          </g>
          <g
             transform="translate(40.4634,39.3789)"
             id="g3739">
            <path
               inkscape:connector-curvature="0"
               id="path3741"
               style="fill:#ee253c;fill-opacity:1;fill-rule:nonzero;stroke:none"
               d="m 0,0 c -2.948,-0.083 -4.63,-0.756 -6.439,-2.652 -0.506,-0.546 -0.675,-0.419 -1.056,0.126 l -1.095,1.683 c -0.151,0.253 -0.334,0.381 -0.629,0.381 h -2.99 c -0.336,0 -0.547,-0.212 -0.547,-0.546 v -19.577 c 0,-0.336 0.209,-0.547 0.547,-0.547 h 5.6 c 0.337,0 0.547,0.211 0.547,0.547 v 3.41 c 0,8.42 1.432,11.03 6.062,11.24 0.379,0 0.546,0.167 0.546,0.547 v 4.842 C 0.546,-0.208 0.336,0 0,0" />
          </g>
          <g
             transform="translate(66.6172,23.6152)"
             id="g3743">
            <path
               inkscape:connector-curvature="0"
               id="path3745"
               style="fill:#ee253c;fill-opacity:1;fill-rule:nonzero;stroke:none"
               d="m 0,0 c -0.126,0.294 -0.377,0.377 -0.714,0.294 h -0.254 c -0.378,0 -0.549,0.336 -0.549,0.799 v 23.639 c 0,0.336 -0.212,0.547 -0.546,0.547 h -5.599 c -0.335,0 -0.548,-0.211 -0.548,-0.547 V 1.093 c 0,-4.208 2.735,-6.694 7.242,-6.694 0.759,0 1.684,0.17 2.443,0.505 0.293,0.127 0.379,0.379 0.252,0.717 z" />
          </g>
          <g
             transform="translate(78.1387,23.6152)"
             id="g3747">
            <path
               inkscape:connector-curvature="0"
               id="path3749"
               style="fill:#ee253c;fill-opacity:1;fill-rule:nonzero;stroke:none"
               d="m 0,0 c -0.125,0.294 -0.378,0.377 -0.716,0.294 h -0.252 c -0.38,0 -0.547,0.336 -0.547,0.799 v 23.639 c 0,0.336 -0.212,0.547 -0.548,0.547 h -5.598 c -0.337,0 -0.547,-0.211 -0.547,-0.547 V 1.093 c 0,-4.208 2.735,-6.694 7.24,-6.694 0.758,0 1.687,0.17 2.441,0.505 0.297,0.127 0.379,0.379 0.255,0.717 z" />
          </g>
          <g
             transform="translate(44.0166,38.1826)"
             id="g3751">
            <path
               inkscape:connector-curvature="0"
               id="path3753"
               style="fill:#ee253c;fill-opacity:1;fill-rule:nonzero;stroke:none"
               d="m 0,0 c -0.033,-0.017 -0.054,-0.048 -0.054,-0.085 v -4.486 c 0,-0.338 0.21,-0.547 0.547,-0.547 H 2.404 C 2.52,-5.119 2.605,-5.115 2.65,-5.165 2.696,-5.217 2.682,-5.351 2.683,-5.44 v -13.949 c 0,-0.336 0.21,-0.547 0.546,-0.547 h 5.558 c 0.336,0 0.548,0.211 0.548,0.547 v 19.301 c 0,0.042 -0.035,0.1 -0.094,0.1 -0.06,0 -0.086,-0.033 -0.118,-0.063 -0.954,-0.865 -2.47,-1.707 -4.444,-1.707 -1.965,0 -3.283,0.675 -4.551,1.733 C 0.102,-0.004 0.055,0.025 0,0" />
          </g>
          <g
             transform="translate(92.9443,26.5635)"
             id="g3755">
            <path
               inkscape:connector-curvature="0"
               id="path3757"
               style="fill:#ee253c;fill-opacity:1;fill-rule:nonzero;stroke:none"
               d="m 0,0 c -0.254,-2.314 -1.474,-3.367 -3.662,-3.367 -1.516,0 -2.4,0.674 -2.4,1.851 0,0.926 0.884,1.6 2.105,1.6 h 3.894 c 0,0 0.04,0 0.052,-0.021 C 0.006,0.038 0,0 0,0 m -3.789,12.881 c -1.601,0 -3.074,-0.253 -4.629,-0.674 l -1.643,-0.462 c -0.379,-0.084 -0.505,-0.297 -0.379,-0.674 l 1.305,-4.379 c 0.126,-0.336 0.337,-0.463 0.673,-0.378 l 1.599,0.463 c 0.926,0.252 1.895,0.421 2.737,0.421 2.398,0 3.957,-1.052 4.126,-2.862 V 4.252 h -3.957 c -5.221,0 -8.335,-2.315 -8.335,-6.23 0,-4.252 2.989,-6.582 7.997,-6.582 1.77,0 3.452,0.478 4.547,1.447 0.716,0.591 1.095,0.505 1.348,0 l 0.379,-0.758 c 0.167,-0.253 0.335,-0.378 0.672,-0.378 h 3.158 c 0.336,0 0.546,0.209 0.546,0.547 V 4.715 c 0,5.135 -3.746,8.166 -10.144,8.166" />
          </g>
          <g
             transform="translate(7.0127,10.7168)"
             id="g3759">
            <path
               inkscape:connector-curvature="0"
               id="path3761"
               style="fill:#5e6267;fill-opacity:1;fill-rule:nonzero;stroke:none"
               d="m 0,0 c 0.126,-0.128 0.183,-0.3 0.183,-0.448 0,-0.173 -0.126,-0.333 -0.252,-0.426 -0.355,0.298 -1.078,0.632 -2.306,0.632 -1.217,0 -1.699,-0.528 -1.699,-1.194 0,-0.711 0.494,-1.101 2.043,-1.548 1.721,-0.459 2.524,-1.022 2.536,-2.365 0.011,-1.331 -0.895,-2.214 -2.812,-2.214 -1.044,0 -1.836,0.241 -2.318,0.538 -0.344,0.219 -0.516,0.448 -0.516,0.678 0,0.218 0.08,0.367 0.161,0.459 0.574,-0.493 1.606,-0.792 2.639,-0.792 1.445,0 1.974,0.574 1.974,1.296 0,0.746 -0.448,1.148 -1.951,1.572 -1.928,0.529 -2.628,1.08 -2.628,2.387 0,1.205 0.803,2.123 2.571,2.123 C -1.033,0.698 -0.333,0.319 0,0" />
          </g>
          <g
             transform="translate(12.9194,4.1748)"
             id="g3763">
            <path
               inkscape:connector-curvature="0"
               id="path3765"
               style="fill:#5e6267;fill-opacity:1;fill-rule:nonzero;stroke:none"
               d="m 0,0 v 0.103 c -0.527,-0.688 -1.228,-1.124 -2.042,-1.124 -0.906,0 -1.538,0.47 -1.538,1.846 v 2.687 c 0,0.217 -0.092,0.309 -0.263,0.309 h -0.505 c -0.023,0.103 -0.047,0.207 -0.047,0.367 0.012,0.299 0.356,0.437 0.884,0.437 0.597,0 0.85,-0.219 0.85,-0.804 v -2.8 c 0,-0.826 0.344,-1.159 0.883,-1.159 0.769,0 1.332,0.448 1.778,1.217 V 4.521 C 0.127,4.59 0.31,4.625 0.494,4.625 0.792,4.625 0.918,4.497 0.918,4.28 V 0.161 c 0,-0.252 0.104,-0.322 0.264,-0.322 H 1.607 C 1.618,-0.229 1.642,-0.299 1.642,-0.448 1.642,-0.723 1.343,-0.907 0.781,-0.907 0.356,-0.907 0,-0.734 0,0" />
          </g>
          <g
             transform="translate(16.9907,7.8467)"
             id="g3767">
            <path
               inkscape:connector-curvature="0"
               id="path3769"
               style="fill:#5e6267;fill-opacity:1;fill-rule:nonzero;stroke:none"
               d="m 0,0 v -0.058 c 0.471,0.609 1.148,1.125 1.791,1.125 0.619,0 0.986,-0.309 0.986,-0.964 0,-0.469 -0.206,-0.63 -0.504,-0.63 -0.138,0 -0.265,0.068 -0.334,0.137 0,0.298 -0.126,0.504 -0.504,0.504 C 0.941,0.114 0.402,-0.287 0,-0.884 v -3.591 c -0.08,-0.069 -0.264,-0.104 -0.482,-0.104 -0.217,0 -0.413,0.058 -0.413,0.413 v 3.949 c 0,0.24 -0.103,0.355 -0.286,0.355 h -0.425 c -0.046,0.126 -0.069,0.23 -0.069,0.379 0,0.241 0.298,0.436 0.792,0.436 C -0.333,0.953 0,0.723 0,0" />
          </g>
          <g
             transform="translate(21.9014,8.0537)"
             id="g3771">
            <path
               inkscape:connector-curvature="0"
               id="path3773"
               style="fill:#5e6267;fill-opacity:1;fill-rule:nonzero;stroke:none"
               d="m 0,0 v -3.156 c 0,-0.689 0.241,-0.861 0.7,-0.861 h 1.102 c 0.034,-0.08 0.057,-0.137 0.057,-0.252 0,-0.298 -0.264,-0.517 -1.388,-0.517 -0.758,0 -1.308,0.31 -1.308,1.425 V 0 h -0.678 c -0.057,0.08 -0.091,0.183 -0.091,0.32 0,0.266 0.08,0.426 0.378,0.426 h 0.391 v 1.502 c 0.08,0.047 0.263,0.093 0.447,0.093 C -0.161,2.341 0,2.227 0,1.962 V 0.746 H 1.755 C 1.813,0.688 1.836,0.597 1.836,0.448 1.836,0.264 1.778,0 1.4,0 Z" />
          </g>
          <g
             transform="translate(25.6514,10.9443)"
             id="g3775">
            <path
               inkscape:connector-curvature="0"
               id="path3777"
               style="fill:#5e6267;fill-opacity:1;fill-rule:nonzero;stroke:none"
               d="m 0,0 c 0.367,0 0.563,-0.195 0.563,-0.572 0,-0.38 -0.196,-0.551 -0.563,-0.551 -0.367,0 -0.562,0.183 -0.562,0.551 C -0.562,-0.195 -0.378,0 0,0 m 0.54,-3.04 v -3.627 c 0,-0.217 0.103,-0.298 0.264,-0.298 h 0.333 c 0.045,-0.068 0.068,-0.149 0.068,-0.287 0,-0.264 -0.218,-0.425 -0.769,-0.425 -0.47,0 -0.757,0.208 -0.757,0.781 v 3.615 c 0,0.253 -0.115,0.321 -0.286,0.321 H -0.94 c -0.046,0.081 -0.07,0.195 -0.07,0.345 0,0.333 0.31,0.47 0.735,0.47 0.504,0 0.815,-0.172 0.815,-0.895" />
          </g>
          <g
             transform="translate(30.0454,5.3682)"
             id="g3779">
            <path
               inkscape:connector-curvature="0"
               id="path3781"
               style="fill:#5e6267;fill-opacity:1;fill-rule:nonzero;stroke:none"
               d="m 0,0 c 0.677,0 1.137,0.356 1.137,1.39 0,0.986 -0.414,1.422 -1.091,1.422 -0.712,0 -1.181,-0.459 -1.181,-1.422 C -1.135,0.356 -0.688,0 0,0 M 1.699,2.742 C 1.905,2.41 2.02,1.963 2.02,1.411 c 0,-1.537 -0.85,-2.11 -2.031,-2.11 -0.356,0 -0.677,0.055 -0.965,0.172 -0.091,-0.219 -0.149,-0.426 -0.149,-0.62 0,-0.391 0.196,-0.621 0.872,-0.621 h 1.757 c 0.86,0 1.273,-0.482 1.273,-1.193 0,-1.227 -1.01,-2.03 -2.685,-2.03 -1.354,0 -2.249,0.632 -2.249,1.136 0,0.16 0.115,0.355 0.275,0.47 0.38,-0.47 0.999,-0.849 1.951,-0.849 1.217,0 1.928,0.46 1.928,1.159 0,0.309 -0.173,0.562 -0.689,0.562 h -1.709 c -1.101,0 -1.504,0.412 -1.504,1.102 0,0.448 0.218,0.894 0.436,1.216 -0.344,0.333 -0.539,0.86 -0.539,1.606 0,1.47 0.873,2.135 2.043,2.135 0.47,0 0.883,-0.103 1.204,-0.333 0.057,0.114 0.196,0.219 0.414,0.219 H 2.582 C 2.627,3.374 2.663,3.271 2.663,3.122 2.663,2.926 2.605,2.742 2.249,2.742 Z" />
          </g>
          <g
             transform="translate(37.0664,4.8066)"
             id="g3783">
            <path
               inkscape:connector-curvature="0"
               id="path3785"
               style="fill:#5e6267;fill-opacity:1;fill-rule:nonzero;stroke:none"
               d="M 0,0 V 1.077 L -1.894,0.895 c -0.584,-0.058 -0.814,-0.357 -0.814,-0.85 0,-0.504 0.275,-0.941 0.85,-0.941 0.642,0 1.215,0.298 1.858,0.896 m -3.052,3.271 c 0,0.549 1.09,0.836 1.893,0.836 1.033,0 1.929,-0.423 1.929,-1.664 v -2.949 c 0,-0.287 0.102,-0.401 0.286,-0.401 h 0.321 c 0.035,-0.046 0.069,-0.15 0.069,-0.299 0,-0.218 -0.229,-0.333 -0.734,-0.333 C 0.276,-1.539 0,-1.217 0,-0.746 V -0.7 c -0.562,-0.552 -1.262,-0.953 -1.985,-0.953 -1.021,0 -1.515,0.711 -1.515,1.71 0,0.894 0.517,1.491 1.561,1.549 L 0,1.721 v 0.494 c 0,0.848 -0.562,1.089 -1.193,1.089 -0.688,0 -1.4,-0.206 -1.698,-0.402 -0.092,0.08 -0.161,0.219 -0.161,0.369" />
          </g>
          <g
             transform="translate(43.3296,8.042)"
             id="g3787">
            <path
               inkscape:connector-curvature="0"
               id="path3789"
               style="fill:#5e6267;fill-opacity:1;fill-rule:nonzero;stroke:none"
               d="m 0,0 c 0,-0.219 -0.08,-0.391 -0.206,-0.459 -0.253,0.229 -0.919,0.447 -1.71,0.447 -0.803,0 -1.102,-0.333 -1.102,-0.722 0,-0.483 0.402,-0.69 1.32,-0.861 1.343,-0.23 1.893,-0.713 1.893,-1.687 0,-1.01 -0.676,-1.607 -2.042,-1.607 -1.239,0 -2.088,0.471 -2.088,0.884 0,0.24 0.057,0.368 0.183,0.483 0.333,-0.254 1.17,-0.574 1.848,-0.574 0.964,0 1.296,0.367 1.296,0.802 0,0.518 -0.356,0.746 -1.296,0.919 -1.389,0.24 -1.905,0.664 -1.905,1.686 0,0.883 0.642,1.561 1.916,1.561 C -0.63,0.872 0,0.378 0,0" />
          </g>
        </g>
      </g>
    </g>
  </g>
</svg>
