<?xml version="1.0" encoding="UTF-8" standalone="no"?>
<!-- Created with Inkscape (http://www.inkscape.org/) -->

<svg
   xmlns:dc="http://purl.org/dc/elements/1.1/"
   xmlns:cc="http://creativecommons.org/ns#"
   xmlns:rdf="http://www.w3.org/1999/02/22-rdf-syntax-ns#"
   xmlns:svg="http://www.w3.org/2000/svg"
   xmlns="http://www.w3.org/2000/svg"
   xmlns:sodipodi="http://sodipodi.sourceforge.net/DTD/sodipodi-0.dtd"
   xmlns:inkscape="http://www.inkscape.org/namespaces/inkscape"
   width="123.38667mm"
   height="50.37529mm"
   viewBox="0 0 123.38667 50.37529"
   version="1.1"
   id="svg3832"
   inkscape:version="0.92.4 (5da689c313, 2019-01-14)"
   sodipodi:docname="surtigas.svg">
  <defs
     id="defs3826">
    <linearGradient
       id="linearGradient3862"
       spreadMethod="pad"
       gradientTransform="matrix(11.889893,42.840866,42.840866,-11.889893,8.5166016,37.187988)"
       gradientUnits="userSpaceOnUse"
       y2="0"
       x2="1"
       y1="0"
       x1="0">
      <stop
         id="stop3856"
         offset="0"
         style="stop-opacity:1;stop-color:#2e3192" />
      <stop
         id="stop3858"
         offset="0.241348"
         style="stop-opacity:1;stop-color:#2e3192" />
      <stop
         id="stop3860"
         offset="1"
         style="stop-opacity:1;stop-color:#67cef2" />
    </linearGradient>
    <clipPath
       id="clipPath3872"
       clipPathUnits="userSpaceOnUse">
      <path
         inkscape:connector-curvature="0"
         id="path3870"
         d="M 0,97.667 H 217.667 V 0 H 0 Z" />
    </clipPath>
    <clipPath
       id="clipPath3880"
       clipPathUnits="userSpaceOnUse">
      <path
         inkscape:connector-curvature="0"
         id="path3878"
         d="M 5.05518,92.0244 H 18.8237 V 33.5342 H 5.05518 Z" />
    </clipPath>
    <clipPath
       id="clipPath3884"
       clipPathUnits="userSpaceOnUse">
      <path
         inkscape:connector-curvature="0"
         id="path3882"
         d="M 2.66553,92.0244 H 18.8237 V 33.5342 H 2.66553 Z" />
    </clipPath>
    <clipPath
       id="clipPath3888"
       clipPathUnits="userSpaceOnUse">
      <path
         inkscape:connector-curvature="0"
         id="path3886"
         d="m 6.007,64.249 c 1.477,5.23 4.616,7.421 6.39,12.55 1.77,5.143 4.056,11.287 0.314,15.225 l 2.247,-1.799 C 17.537,87.71 18.123,79.239 16.436,72.903 13.74,62.778 3.078,53.418 18.824,33.534 18.808,33.555 18.767,33.57 18.707,33.594 8.408,39.635 2.666,52.368 6.007,64.249" />
    </clipPath>
    <clipPath
       id="clipPath3892"
       clipPathUnits="userSpaceOnUse">
      <path
         inkscape:connector-curvature="0"
         id="path3890"
         d="M -24397.7,24582 H 8368.33 V -8184 H -24397.7 Z" />
    </clipPath>
    <clipPath
       id="clipPath3896"
       clipPathUnits="userSpaceOnUse">
      <path
         inkscape:connector-curvature="0"
         id="path3894"
         d="M -24397.7,24582 H 8368.33 V -8184 H -24397.7 Z" />
    </clipPath>
    <mask
       id="mask3898"
       height="1"
       width="1"
       y="0"
       x="0"
       maskUnits="userSpaceOnUse">
      <g
         id="g3910">
        <g
           id="g3908"
           clip-path="url(#clipPath3892)">
          <g
             id="g3906">
            <g
               id="g3900" />
            <g
               id="g3904">
              <g
                 id="g3902"
                 clip-path="url(#clipPath3896)" />
            </g>
          </g>
        </g>
      </g>
    </mask>
    <linearGradient
       id="linearGradient3920"
       spreadMethod="pad"
       gradientTransform="matrix(-9.4640656,1.4280853,1.4280853,9.4640656,18.783203,62.324219)"
       gradientUnits="userSpaceOnUse"
       y2="0"
       x2="1"
       y1="0"
       x1="0">
      <stop
         id="stop3912"
         offset="0"
         style="stop-opacity:1;stop-color:#ffffff" />
      <stop
         id="stop3914"
         offset="0.0243225"
         style="stop-opacity:1;stop-color:#ffffff" />
      <stop
         id="stop3916"
         offset="0.99047375"
         style="stop-opacity:1;stop-color:#231f20" />
      <stop
         id="stop3918"
         offset="1"
         style="stop-opacity:1;stop-color:#231f20" />
    </linearGradient>
    <mask
       id="mask3922"
       height="1"
       width="1"
       y="0"
       x="0"
       maskUnits="userSpaceOnUse">
      <g
         id="g3948">
        <g
           style="opacity:0.42999303"
           id="g3946"
           clip-path="url(#clipPath3880)">
          <g
             id="g3944">
            <g
               id="g3924" />
            <g
               id="g3942">
              <g
                 id="g3940"
                 clip-path="url(#clipPath3884)">
                <g
                   id="g3938">
                  <g
                     id="g3936"
                     clip-path="url(#clipPath3888)">
                    <g
                       id="g3934">
                      <g
                         id="g3926" />
                      <g
                         id="g3932"
                         mask="url(#mask3898)">
                        <g
                           id="g3930">
                          <path
                             inkscape:connector-curvature="0"
                             id="path3928"
                             style="fill:url(#linearGradient3920);stroke:none"
                             d="m 6.007,64.249 c 1.477,5.23 4.616,7.421 6.39,12.55 1.77,5.143 4.056,11.287 0.314,15.225 l 2.247,-1.799 C 17.537,87.71 18.123,79.239 16.436,72.903 13.74,62.778 3.078,53.418 18.824,33.534 18.808,33.555 18.767,33.57 18.707,33.594 8.408,39.635 2.666,52.368 6.007,64.249" />
                        </g>
                      </g>
                    </g>
                  </g>
                </g>
              </g>
            </g>
          </g>
        </g>
      </g>
    </mask>
    <clipPath
       id="clipPath3956"
       clipPathUnits="userSpaceOnUse">
      <path
         inkscape:connector-curvature="0"
         id="path3954"
         d="M 5.05518,92.0244 H 18.8237 V 33.5342 H 5.05518 Z" />
    </clipPath>
    <linearGradient
       id="linearGradient3970"
       spreadMethod="pad"
       gradientTransform="matrix(-9.4640656,1.4280853,1.4280853,9.4640656,18.783203,62.324219)"
       gradientUnits="userSpaceOnUse"
       y2="0"
       x2="1"
       y1="0"
       x1="0">
      <stop
         id="stop3962"
         offset="0"
         style="stop-opacity:1;stop-color:#30225e" />
      <stop
         id="stop3964"
         offset="0.0243225"
         style="stop-opacity:1;stop-color:#30225e" />
      <stop
         id="stop3966"
         offset="0.99047375"
         style="stop-opacity:1;stop-color:#30225e" />
      <stop
         id="stop3968"
         offset="1"
         style="stop-opacity:1;stop-color:#30225e" />
    </linearGradient>
    <linearGradient
       id="linearGradient4006"
       spreadMethod="pad"
       gradientTransform="matrix(-16.375748,-9.4450684,-9.4450684,16.375748,28.793457,46.58252)"
       gradientUnits="userSpaceOnUse"
       y2="0"
       x2="1"
       y1="0"
       x1="0">
      <stop
         id="stop3998"
         offset="0"
         style="stop-opacity:1;stop-color:#80cc28" />
      <stop
         id="stop4000"
         offset="0.996964"
         style="stop-opacity:1;stop-color:#03a3a3" />
      <stop
         id="stop4002"
         offset="0.99844715"
         style="stop-opacity:1;stop-color:#03a3a3" />
      <stop
         id="stop4004"
         offset="1"
         style="stop-opacity:1;stop-color:#03a3a3" />
    </linearGradient>
    <clipPath
       id="clipPath4016"
       clipPathUnits="userSpaceOnUse">
      <path
         inkscape:connector-curvature="0"
         id="path4014"
         d="M 0,97.667 H 217.667 V 0 H 0 Z" />
    </clipPath>
    <clipPath
       id="clipPath4024"
       clipPathUnits="userSpaceOnUse">
      <path
         inkscape:connector-curvature="0"
         id="path4022"
         d="M 5.33447,52.2842 H 35.7534 V 30.3037 H 5.33447 Z" />
    </clipPath>
    <clipPath
       id="clipPath4028"
       clipPathUnits="userSpaceOnUse">
      <path
         inkscape:connector-curvature="0"
         id="path4026"
         d="M 5.33447,52.2842 H 35.7534 V 30.3037 H 5.33447 Z" />
    </clipPath>
    <clipPath
       id="clipPath4032"
       clipPathUnits="userSpaceOnUse">
      <path
         inkscape:connector-curvature="0"
         id="path4030"
         d="M 35.753,30.979 34.094,30.304 C 31.361,33.752 26.031,31.529 22.295,32.342 14.381,34.057 7.404,42.985 5.334,52.284 6.327,50.553 9.115,42.84 16.509,38.714 24.072,34.493 33.329,37.9 35.753,30.979" />
    </clipPath>
    <clipPath
       id="clipPath4036"
       clipPathUnits="userSpaceOnUse">
      <path
         inkscape:connector-curvature="0"
         id="path4034"
         d="M -24397.7,24582 H 8368.33 V -8184 H -24397.7 Z" />
    </clipPath>
    <clipPath
       id="clipPath4040"
       clipPathUnits="userSpaceOnUse">
      <path
         inkscape:connector-curvature="0"
         id="path4038"
         d="M -24397.7,24582 H 8368.33 V -8184 H -24397.7 Z" />
    </clipPath>
    <mask
       id="mask4042"
       height="1"
       width="1"
       y="0"
       x="0"
       maskUnits="userSpaceOnUse">
      <g
         id="g4054">
        <g
           id="g4052"
           clip-path="url(#clipPath4036)">
          <g
             id="g4050">
            <g
               id="g4044" />
            <g
               id="g4048">
              <g
                 id="g4046"
                 clip-path="url(#clipPath4040)" />
            </g>
          </g>
        </g>
      </g>
    </mask>
    <linearGradient
       id="linearGradient4062"
       spreadMethod="pad"
       gradientTransform="matrix(-14.908966,-8.5990753,-8.5990753,14.908966,27.458008,45.619629)"
       gradientUnits="userSpaceOnUse"
       y2="0"
       x2="1"
       y1="0"
       x1="0">
      <stop
         id="stop4056"
         offset="0"
         style="stop-opacity:1;stop-color:#ffffff" />
      <stop
         id="stop4058"
         offset="0.954407"
         style="stop-opacity:1;stop-color:#231f20" />
      <stop
         id="stop4060"
         offset="1"
         style="stop-opacity:1;stop-color:#231f20" />
    </linearGradient>
    <mask
       id="mask4064"
       height="1"
       width="1"
       y="0"
       x="0"
       maskUnits="userSpaceOnUse">
      <g
         id="g4090">
        <g
           id="g4088"
           clip-path="url(#clipPath4024)">
          <g
             id="g4086">
            <g
               id="g4066" />
            <g
               id="g4084">
              <g
                 id="g4082"
                 clip-path="url(#clipPath4028)">
                <g
                   id="g4080">
                  <g
                     id="g4078"
                     clip-path="url(#clipPath4032)">
                    <g
                       id="g4076">
                      <g
                         id="g4068" />
                      <g
                         id="g4074"
                         mask="url(#mask4042)">
                        <g
                           id="g4072">
                          <path
                             inkscape:connector-curvature="0"
                             id="path4070"
                             style="fill:url(#linearGradient4062);stroke:none"
                             d="M 35.753,30.979 34.094,30.304 C 31.361,33.752 26.031,31.529 22.295,32.342 14.381,34.057 7.404,42.985 5.334,52.284 6.327,50.553 9.115,42.84 16.509,38.714 24.072,34.493 33.329,37.9 35.753,30.979" />
                        </g>
                      </g>
                    </g>
                  </g>
                </g>
              </g>
            </g>
          </g>
        </g>
      </g>
    </mask>
    <clipPath
       id="clipPath4098"
       clipPathUnits="userSpaceOnUse">
      <path
         inkscape:connector-curvature="0"
         id="path4096"
         d="M 5.33447,52.2842 H 35.7534 V 30.3037 H 5.33447 Z" />
    </clipPath>
    <linearGradient
       id="linearGradient4110"
       spreadMethod="pad"
       gradientTransform="matrix(-14.908966,-8.5990753,-8.5990753,14.908966,27.458008,45.619629)"
       gradientUnits="userSpaceOnUse"
       y2="0"
       x2="1"
       y1="0"
       x1="0">
      <stop
         id="stop4104"
         offset="0"
         style="stop-opacity:1;stop-color:#4fc18b" />
      <stop
         id="stop4106"
         offset="0.954407"
         style="stop-opacity:1;stop-color:#4fc18b" />
      <stop
         id="stop4108"
         offset="1"
         style="stop-opacity:1;stop-color:#4fc18b" />
    </linearGradient>
  </defs>
  <sodipodi:namedview
     id="base"
     pagecolor="#ffffff"
     bordercolor="#666666"
     borderopacity="1.0"
     inkscape:pageopacity="0.0"
     inkscape:pageshadow="2"
     inkscape:zoom="1.28"
     inkscape:cx="320.52015"
     inkscape:cy="46.019715"
     inkscape:document-units="mm"
     inkscape:current-layer="layer1"
     showgrid="false"
     inkscape:window-width="1920"
     inkscape:window-height="1017"
     inkscape:window-x="-8"
     inkscape:window-y="-8"
     inkscape:window-maximized="1" />
  <metadata
     id="metadata3829">
    <rdf:RDF>
      <cc:Work
         rdf:about="">
        <dc:format>image/svg+xml</dc:format>
        <dc:type
           rdf:resource="http://purl.org/dc/dcmitype/StillImage" />
        <dc:title></dc:title>
      </cc:Work>
    </rdf:RDF>
  </metadata>
  <g
     inkscape:label="Capa 1"
     inkscape:groupmode="layer"
     id="layer1"
     transform="translate(-6.4524727,-18.214846)">
    <g
       transform="matrix(0.59404825,0,0,-0.59404825,3.4934576,72.886295)"
       inkscape:label="logo surtigas - slogan"
       id="g3842">
      <g
         id="g3844">
        <g
           id="g3846">
          <g
             id="g3852">
            <g
               id="g3854">
              <path
                 inkscape:connector-curvature="0"
                 id="path3864"
                 style="fill:url(#linearGradient3862);stroke:none"
                 d="m 10.754,89.325 c 2.306,-4.199 3.173,-8.082 1.643,-12.526 v 0 C 10.629,71.67 7.33,69.52 6.008,64.249 v 0 C 2.771,51.358 7.236,42.615 18.706,33.593 v 0 c 0.288,7.302 5.06,14.402 7,21.455 v 0 c 4.108,15.013 0,27.072 -12.988,36.984 v 0 z" />
            </g>
          </g>
        </g>
      </g>
      <g
         id="g3866">
        <g
           clip-path="url(#clipPath3872)"
           id="g3868">
          <g
             id="g3874">
            <g
               id="g3876" />
            <g
               mask="url(#mask3922)"
               id="g3950">
              <g
                 id="g3952" />
              <g
                 id="g3984">
                <g
                   style="opacity:0.42999303"
                   id="g3982"
                   clip-path="url(#clipPath3956)">
                  <g
                     id="g3980">
                    <g
                       id="g3978">
                      <g
                         id="g3976">
                        <g
                           id="g3974">
                          <path
                             inkscape:connector-curvature="0"
                             id="path3972"
                             style="fill:url(#linearGradient3970);stroke:none"
                             d="m 6.007,64.249 c 1.477,5.23 4.616,7.421 6.39,12.55 1.77,5.143 4.056,11.287 0.314,15.225 l 2.247,-1.799 C 17.537,87.71 18.123,79.239 16.436,72.903 13.74,62.778 3.078,53.418 18.824,33.534 18.808,33.555 18.767,33.57 18.707,33.594 8.408,39.635 2.666,52.368 6.007,64.249" />
                        </g>
                      </g>
                    </g>
                  </g>
                </g>
              </g>
            </g>
          </g>
        </g>
      </g>
      <g
         id="g3986">
        <g
           id="g3988">
          <g
             id="g3994">
            <g
               id="g3996">
              <path
                 inkscape:connector-curvature="0"
                 id="path4008"
                 style="fill:url(#linearGradient4006);stroke:none"
                 d="m 21.71,32.455 c 1.557,-0.411 3.291,-0.321 4.996,-0.232 v 0 c 2.864,0.149 5.65,0.298 7.388,-1.919 v 0 l 1.659,0.675 c -0.175,6.782 -5.016,12.517 -11.662,14.147 v 0 c -3.114,0.768 -6.403,0.55 -9.545,1.164 v 0 c -3.155,0.611 -8.339,3.278 -9.253,6.356 v 0 C 6.479,45.302 12.814,34.794 21.71,32.455" />
            </g>
          </g>
        </g>
      </g>
      <g
         id="g4010">
        <g
           clip-path="url(#clipPath4016)"
           id="g4012">
          <g
             id="g4018">
            <g
               id="g4020" />
            <g
               mask="url(#mask4064)"
               id="g4092">
              <g
                 id="g4094" />
              <g
                 id="g4124">
                <g
                   id="g4122"
                   clip-path="url(#clipPath4098)">
                  <g
                     id="g4120">
                    <g
                       id="g4118">
                      <g
                         id="g4116">
                        <g
                           id="g4114">
                          <path
                             inkscape:connector-curvature="0"
                             id="path4112"
                             style="fill:url(#linearGradient4110);stroke:none"
                             d="M 35.753,30.979 34.094,30.304 C 31.361,33.752 26.031,31.529 22.295,32.342 14.381,34.057 7.404,42.985 5.334,52.284 6.327,50.553 9.115,42.84 16.509,38.714 24.072,34.493 33.329,37.9 35.753,30.979" />
                        </g>
                      </g>
                    </g>
                  </g>
                </g>
              </g>
            </g>
          </g>
          <g
             transform="translate(50.4683,70.4756)"
             id="g4126">
            <path
               inkscape:connector-curvature="0"
               id="path4128"
               style="fill:#0b8ed8;fill-opacity:1;fill-rule:nonzero;stroke:none"
               d="m 0,0 c 3.324,0 6.383,-1.527 9.126,-3.898 l 2.319,2.793 C 8.968,1.373 4.802,3.589 0.054,3.589 c -6.592,0 -11.128,-3.85 -11.128,-9.705 0,-6.487 4.956,-8.385 10.022,-9.758 4.217,-1.158 7.909,-2.529 7.909,-6.747 0,-5.38 -3.85,-6.487 -7.383,-6.487 -4.163,0 -7.911,1.897 -9.543,3.005 l -1.742,-3.427 c 1.424,-1.158 6.119,-3.216 11.181,-3.216 7.381,0 11.811,3.689 11.811,10.282 0,6.645 -4.956,8.492 -9.809,10.022 -4.535,1.369 -8.121,2.585 -8.121,6.748 C -6.749,-1.264 -2.954,0 0,0" />
          </g>
          <g
             transform="translate(87.2808,64.5713)"
             id="g4130">
            <path
               inkscape:connector-curvature="0"
               id="path4132"
               style="fill:#0b8ed8;fill-opacity:1;fill-rule:nonzero;stroke:none"
               d="m 0,0 h -4.06 v -17.403 c 0,-3.058 -3.271,-6.329 -6.959,-6.329 -4.641,0 -5.432,3.005 -5.432,6.964 V 0 h -4.115 v -17.933 c 0,-6.063 2.848,-9.016 8.493,-9.016 3.164,0 6.326,1.32 8.279,4.325 h 0.104 l 0.424,-3.586 H 0.372 L 0,-22.36 Z" />
          </g>
          <g
             transform="translate(97.8315,60.7754)"
             id="g4134">
            <path
               inkscape:connector-curvature="0"
               id="path4136"
               style="fill:#0b8ed8;fill-opacity:1;fill-rule:nonzero;stroke:none"
               d="M 0,0 -0.474,3.796 H -4.009 L -3.694,0.21 v -22.624 h 4.065 v 16.718 c 0.156,3.533 2.317,6.592 5.693,6.592 1.323,0 2.533,-0.527 3.429,-1.002 l 1.264,3.64 C 9.756,4.164 8.228,4.535 6.592,4.535 3.586,4.535 1.265,2.951 0,0" />
          </g>
          <g
             transform="translate(126.021,43.5342)"
             id="g4138">
            <path
               inkscape:connector-curvature="0"
               id="path4140"
               style="fill:#0b8ed8;fill-opacity:1;fill-rule:nonzero;stroke:none"
               d="M 0,0 C -0.317,-0.179 -0.734,-0.417 -1.247,-0.717 -1.738,-1.005 -2.295,-1.28 -2.904,-1.532 -3.513,-1.787 -4.15,-2.005 -4.85,-2.195 c -1.191,-0.33 -2.259,-0.393 -3.239,-0.039 -0.418,0.151 -0.765,0.388 -1.06,0.731 -0.306,0.35 -0.557,0.84 -0.746,1.46 -0.197,0.633 -0.297,1.442 -0.297,2.411 v 15.336 h 8.336 v 3.875 h -8.338 c -0.005,0.703 -0.051,1.409 -0.132,2.104 -0.089,0.754 -0.265,1.513 -0.528,2.263 -0.255,0.74 -0.604,1.441 -1.026,2.088 -0.434,0.661 -1.018,1.262 -1.724,1.783 l -0.334,0.245 -2.44,-2.362 0.335,-0.35 c 0.648,-0.68 1.144,-1.509 1.474,-2.462 0.334,-0.97 0.504,-2.141 0.504,-3.48 V 2.368 c 0,-1.59 0.183,-2.946 0.549,-4.032 0.378,-1.109 0.886,-2.002 1.506,-2.652 0.628,-0.672 1.367,-1.161 2.199,-1.452 0.808,-0.276 1.67,-0.419 2.561,-0.419 0.949,0 1.92,0.12 2.887,0.354 0.951,0.234 1.85,0.528 2.678,0.87 0.848,0.349 1.565,0.692 2.191,1.054 0.618,0.352 1.089,0.647 1.392,0.876 l 0.363,0.267 -1.853,2.992 z" />
          </g>
          <path
             inkscape:connector-curvature="0"
             id="path4142"
             style="fill:#0b8ed8;fill-opacity:1;fill-rule:nonzero;stroke:none"
             d="m 131.375,38.361 h 4.112 v 26.21 h -4.112 z" />
          <g
             transform="translate(133.4331,74.8018)"
             id="g4144">
            <path
               inkscape:connector-curvature="0"
               id="path4146"
               style="fill:#0b8ed8;fill-opacity:1;fill-rule:nonzero;stroke:none"
               d="m 0,0 c -1.583,0 -2.744,-1.212 -2.744,-2.742 0,-1.635 1.108,-2.796 2.69,-2.796 1.582,0 2.793,1.161 2.793,2.796 C 2.739,-1.212 1.528,0 0,0" />
          </g>
          <g
             transform="translate(158.7817,61.9893)"
             id="g4148">
            <path
               inkscape:connector-curvature="0"
               id="path4150"
               style="fill:#0b8ed8;fill-opacity:1;fill-rule:nonzero;stroke:none"
               d="m 0,0 v -17.055 c -0.61,-0.508 -1.458,-0.974 -2.528,-1.379 -1.155,-0.438 -2.446,-0.659 -3.842,-0.659 -0.935,0 -1.865,0.177 -2.772,0.526 -0.891,0.344 -1.697,0.904 -2.394,1.66 -0.705,0.765 -1.282,1.772 -1.721,2.998 -0.447,1.224 -0.671,2.729 -0.671,4.467 0,1.499 0.194,2.886 0.576,4.122 0.381,1.225 0.939,2.297 1.659,3.181 0.717,0.878 1.592,1.569 2.604,2.047 1.017,0.48 2.198,0.724 3.512,0.724 1.615,0 2.877,-0.077 3.746,-0.232 C -1.115,0.273 -0.5,0.14 0,0 m 0.196,4.075 c -1.452,0.339 -3.41,0.514 -5.822,0.514 -1.94,0 -3.71,-0.36 -5.257,-1.067 -1.554,-0.709 -2.887,-1.703 -3.965,-2.957 -1.069,-1.245 -1.905,-2.74 -2.481,-4.438 -0.575,-1.682 -0.866,-3.537 -0.866,-5.516 0,-2.431 0.328,-4.53 0.969,-6.239 0.647,-1.715 1.52,-3.142 2.599,-4.237 1.084,-1.097 2.363,-1.911 3.804,-2.422 1.426,-0.506 2.925,-0.763 4.453,-0.763 0.95,0 1.821,0.084 2.593,0.247 0.769,0.164 1.463,0.379 2.061,0.632 0.608,0.259 1.103,0.499 1.506,0.735 0.092,0.051 0.178,0.101 0.256,0.151 v -0.97 c 0,-2.888 -0.643,-4.937 -1.915,-6.096 -1.286,-1.169 -3.416,-1.761 -6.332,-1.761 -1.353,0 -2.72,0.137 -4.056,0.411 -1.329,0.272 -2.389,0.598 -3.149,0.968 l -0.49,0.237 -0.829,-4.001 0.343,-0.125 c 0.977,-0.357 2.157,-0.675 3.512,-0.941 1.349,-0.267 2.886,-0.402 4.568,-0.402 4.086,0 7.198,0.914 9.253,2.714 2.07,1.817 3.118,4.861 3.118,9.049 V 2.99 L 3.783,3.089 C 2.856,3.408 1.647,3.739 0.196,4.075" />
          </g>
          <g
             transform="translate(186.0542,46.6934)"
             id="g4152">
            <path
               inkscape:connector-curvature="0"
               id="path4154"
               style="fill:#0b8ed8;fill-opacity:1;fill-rule:nonzero;stroke:none"
               d="m 0,0 c 0,-2.955 -2.425,-6.012 -6.859,-6.012 -5.535,0 -6.906,4.903 -6.906,9.492 0,6.75 2.161,11.919 8.488,11.919 2.216,0 4.326,-0.472 5.277,-0.897 z m 4.059,16.929 c -3.377,1.265 -7.013,1.688 -8.651,1.688 -8.753,0 -13.234,-5.642 -13.234,-14.98 0,-7.648 3.112,-12.708 10.443,-12.708 4.112,0 6.379,2.003 7.697,3.902 L 0.473,-5.221 0.789,-8.332 H 4.48 l -0.421,4.588 z" />
          </g>
          <g
             transform="translate(204.5649,53.3906)"
             id="g4156">
            <path
               inkscape:connector-curvature="0"
               id="path4158"
               style="fill:#0b8ed8;fill-opacity:1;fill-rule:nonzero;stroke:none"
               d="m 0,0 c -3.005,0.896 -5.591,1.635 -5.591,4.747 0,2.9 2.532,4.061 4.798,4.061 2.695,0 4.802,-1.213 6.545,-2.848 l 2.369,2.427 c -1.895,1.895 -5.009,3.533 -8.753,3.533 -4.59,0 -8.808,-2.479 -8.808,-7.755 0,-5.219 3.743,-6.539 7.962,-7.541 3.062,-0.735 5.433,-1.685 5.433,-4.746 0,-3.107 -2.267,-4.482 -5.22,-4.482 -3.06,0 -5.644,1.265 -7.172,2.321 l -1.584,-2.953 c 1.11,-0.95 4.537,-2.533 8.809,-2.533 5.377,0 9.176,2.849 9.176,8.015 C 7.964,-2.424 3.798,-1.158 0,0" />
          </g>
          <g
             transform="translate(51.7065,8.7998)"
             id="g4160">
            <path
               inkscape:connector-curvature="0"
               id="path4162"
               style="fill:#00aaa3;fill-opacity:1;fill-rule:nonzero;stroke:none"
               d="M 0,0 H 1.394 V 8.635 H 0 v 1.41 H 8.41 V 7.05 H 6.912 V 8.652 H 2.979 V 5.101 h 3.62 V 3.743 H 2.979 V -0.018 H 6.912 V 1.583 H 8.427 V -1.411 H 0 Z" />
          </g>
          <g
             transform="translate(64.3442,13.5864)"
             id="g4164">
            <path
               inkscape:connector-curvature="0"
               id="path4166"
               style="fill:#00aaa3;fill-opacity:1;fill-rule:nonzero;stroke:none"
               d="M 0,0 C 0.714,0.767 1.654,1.446 2.733,1.446 3.674,1.446 4.317,1.079 4.701,0.488 4.944,0.07 5.084,-0.453 5.084,-1.079 V -4.944 H 6.251 V -6.197 H 2.472 v 1.253 h 1.114 v 3.535 c 0,0.365 -0.052,0.662 -0.174,0.888 C 3.203,-0.121 2.838,0.07 2.298,0.07 1.48,0.07 0.696,-0.418 0.052,-1.062 v -3.882 h 1.114 v -1.253 h -3.76 v 1.253 h 1.167 V 0.018 H -2.594 V 1.306 H 0 Z" />
          </g>
          <g
             transform="translate(75.2407,18.9487)"
             id="g4168">
            <path
               inkscape:connector-curvature="0"
               id="path4170"
               style="fill:#00aaa3;fill-opacity:1;fill-rule:nonzero;stroke:none"
               d="m 0,0 c -0.192,-0.053 -0.365,-0.174 -0.505,-0.33 -0.244,-0.331 -0.383,-0.802 -0.383,-1.534 v -2.192 h 1.95 v -1.289 h -1.95 v -4.962 h 1.462 v -1.253 h -4.108 v 1.253 h 1.167 v 4.962 h -1.306 v 1.289 h 1.306 v 1.915 c 0,1.271 0.226,2.106 0.87,2.733 0.47,0.469 1.079,0.731 1.862,0.731 0.871,0 1.497,-0.435 1.497,-1.114 0,-0.574 -0.4,-0.923 -0.869,-0.923 C 0.47,-0.714 0.156,-0.4 0,0" />
          </g>
          <g
             transform="translate(83.439,11.1318)"
             id="g4172">
            <path
               inkscape:connector-curvature="0"
               id="path4174"
               style="fill:#00aaa3;fill-opacity:1;fill-rule:nonzero;stroke:none"
               d="m 0,0 c 0,1.532 -0.975,2.628 -2.367,2.628 -1.41,0 -2.385,-1.096 -2.385,-2.628 0,-1.532 0.975,-2.612 2.385,-2.612 C -0.975,-2.612 0,-1.532 0,0 m -6.284,0 c 0,2.107 1.532,3.901 3.917,3.901 C 0.018,3.901 1.55,2.125 1.55,0 1.55,-2.089 0,-3.882 -2.367,-3.882 c -2.404,0 -3.917,1.776 -3.917,3.882" />
          </g>
          <g
             transform="translate(86.3452,11.167)"
             id="g4176">
            <path
               inkscape:connector-curvature="0"
               id="path4178"
               style="fill:#00aaa3;fill-opacity:1;fill-rule:nonzero;stroke:none"
               d="m 0,0 c 0,2.02 1.618,3.866 3.76,3.866 1.862,0 3.22,-1.22 3.22,-2.369 0,-0.662 -0.452,-1.115 -1.061,-1.115 -0.488,0 -0.94,0.385 -0.94,0.941 0,0.243 0.121,0.487 0.312,0.626 -0.173,0.35 -0.8,0.679 -1.531,0.679 -1.01,0 -2.246,-0.852 -2.246,-2.663 0,-1.549 1.132,-2.593 2.681,-2.593 0.87,0 1.654,0.261 2.577,0.8 L 6.633,-3.204 C 5.866,-3.691 4.979,-3.917 4.056,-3.917 1.723,-3.917 0,-2.315 0,0" />
          </g>
          <g
             transform="translate(99.6616,9.271)"
             id="g4180">
            <path
               inkscape:connector-curvature="0"
               id="path4182"
               style="fill:#00aaa3;fill-opacity:1;fill-rule:nonzero;stroke:none"
               d="m 0,0 v 1.216 c -0.505,0.139 -1.148,0.263 -1.828,0.263 -1.062,0 -1.653,-0.506 -1.653,-1.238 0,-0.678 0.503,-1.13 1.375,-1.13 0.8,0 1.532,0.383 2.106,0.889 m -4.996,0.121 c 0,1.375 1.219,2.262 2.941,2.262 C -1.271,2.383 -0.4,2.21 0,2.087 V 2.94 c 0,0.435 -0.121,0.784 -0.33,1.045 -0.314,0.383 -0.837,0.575 -1.567,0.575 -0.47,0 -0.749,-0.104 -0.975,-0.227 0.052,-0.121 0.086,-0.279 0.086,-0.417 0,-0.488 -0.364,-0.854 -0.869,-0.854 -0.524,0 -0.889,0.366 -0.889,0.888 0,0.889 0.976,1.812 2.891,1.812 1.166,0 2.018,-0.35 2.523,-0.941 C 1.254,4.368 1.445,3.777 1.445,3.098 V -0.629 H 2.611 V -1.882 H 0.035 v 0.906 c -0.609,-0.574 -1.567,-1.045 -2.577,-1.045 -1.375,0 -2.454,0.783 -2.454,2.142" />
          </g>
          <g
             transform="translate(109.0776,9.5122)"
             id="g4184">
            <path
               inkscape:connector-curvature="0"
               id="path4186"
               style="fill:#00aaa3;fill-opacity:1;fill-rule:nonzero;stroke:none"
               d="m 0,0 v 3.483 c -0.539,0.417 -1.184,0.731 -2.055,0.731 -1.288,0 -2.279,-1.027 -2.297,-2.612 0,-1.567 0.992,-2.558 2.263,-2.558 0.853,0 1.531,0.4 2.089,0.956 m -5.885,1.584 c 0,2.143 1.516,3.937 3.656,3.937 0.941,0 1.724,-0.35 2.229,-0.82 v 4.632 h -1.288 v 1.288 H 1.497 V -0.87 H 2.663 V -2.123 H 0.018 v 0.958 c -0.592,-0.626 -1.34,-1.097 -2.385,-1.097 -1.985,0 -3.518,1.567 -3.518,3.846" />
          </g>
          <g
             transform="translate(119.1382,11.1318)"
             id="g4188">
            <path
               inkscape:connector-curvature="0"
               id="path4190"
               style="fill:#00aaa3;fill-opacity:1;fill-rule:nonzero;stroke:none"
               d="m 0,0 c 0,1.532 -0.976,2.628 -2.367,2.628 -1.411,0 -2.386,-1.096 -2.386,-2.628 0,-1.532 0.975,-2.612 2.386,-2.612 C -0.976,-2.612 0,-1.532 0,0 m -6.284,0 c 0,2.107 1.531,3.901 3.917,3.901 2.384,0 3.916,-1.776 3.916,-3.901 0,-2.089 -1.549,-3.882 -3.916,-3.882 -2.404,0 -3.917,1.776 -3.917,3.882" />
          </g>
          <g
             transform="translate(127.3188,12.437)"
             id="g4192">
            <path
               inkscape:connector-curvature="0"
               id="path4194"
               style="fill:#00aaa3;fill-opacity:1;fill-rule:nonzero;stroke:none"
               d="m 0,0 c -0.523,0 -0.905,0.332 -0.905,0.837 0,0.121 0.017,0.26 0.069,0.382 -0.296,0.139 -0.731,0.227 -1.201,0.227 -0.958,0 -1.481,-0.47 -1.481,-0.958 0,-0.556 0.576,-0.783 1.776,-1.096 1.621,-0.418 2.804,-0.853 2.804,-2.264 0,-1.497 -1.427,-2.333 -3.064,-2.333 -1.132,0 -2.281,0.383 -2.786,0.889 -0.277,0.277 -0.417,0.591 -0.417,0.974 0,0.488 0.348,0.906 0.852,0.906 0.488,0 0.888,-0.331 0.888,-0.871 0,-0.139 -0.017,-0.262 -0.069,-0.382 0.278,-0.174 0.836,-0.35 1.532,-0.35 0.904,0 1.637,0.35 1.637,1.01 0,0.541 -0.54,0.801 -1.655,1.079 -1.915,0.489 -2.942,0.959 -2.942,2.3 0,1.149 1.027,2.246 2.942,2.246 0.975,0 1.951,-0.315 2.438,-0.803 C 0.679,1.532 0.8,1.219 0.8,0.888 0.8,0.35 0.47,0 0,0" />
          </g>
          <g
             transform="translate(135.2554,11.7759)"
             id="g4196">
            <path
               inkscape:connector-curvature="0"
               id="path4198"
               style="fill:#00aaa3;fill-opacity:1;fill-rule:nonzero;stroke:none"
               d="M 0,0 H 4.195 C 4.126,1.201 3.396,2.02 2.123,2.02 1.114,2.02 0.19,1.358 0,0 m 0,-1.114 c 0.208,-1.427 1.253,-2.123 2.716,-2.123 0.957,0 1.775,0.296 2.663,0.8 L 5.258,-3.813 C 4.474,-4.3 3.516,-4.526 2.489,-4.526 c -2.421,0 -4.056,1.568 -4.056,3.864 0,2.107 1.445,3.919 3.725,3.919 2.316,0 3.534,-1.655 3.534,-3.569 0,-0.279 -0.035,-0.576 -0.07,-0.802 z" />
          </g>
          <g
             transform="translate(144.811,13.5864)"
             id="g4200">
            <path
               inkscape:connector-curvature="0"
               id="path4202"
               style="fill:#00aaa3;fill-opacity:1;fill-rule:nonzero;stroke:none"
               d="M 0,0 C 0.714,0.767 1.653,1.446 2.732,1.446 3.674,1.446 4.317,1.079 4.701,0.488 4.944,0.07 5.083,-0.453 5.083,-1.079 V -4.944 H 6.25 V -6.197 H 2.472 v 1.253 h 1.114 v 3.535 c 0,0.365 -0.052,0.662 -0.175,0.888 C 3.203,-0.121 2.837,0.07 2.297,0.07 1.48,0.07 0.696,-0.418 0.052,-1.062 v -3.882 h 1.114 v -1.253 h -3.761 v 1.253 h 1.167 V 0.018 H -2.595 V 1.306 H 0 Z" />
          </g>
          <g
             transform="translate(157.186,8.1895)"
             id="g4204">
            <path
               inkscape:connector-curvature="0"
               id="path4206"
               style="fill:#00aaa3;fill-opacity:1;fill-rule:nonzero;stroke:none"
               d="m 0,0 c -0.139,0.297 -0.227,0.679 -0.227,1.097 v 4.318 h -1.409 v 1.288 h 1.409 V 8.427 L 1.271,9.036 V 6.703 H 3.552 V 5.415 H 1.271 V 1.358 c 0,-0.244 0.036,-0.417 0.105,-0.574 0.139,-0.243 0.417,-0.365 0.853,-0.365 0.452,0 0.992,0.209 1.426,0.417 L 3.5,-0.504 C 3.064,-0.729 2.507,-0.939 1.811,-0.939 0.977,-0.939 0.331,-0.644 0,0" />
          </g>
          <g
             transform="translate(162.7563,17.5732)"
             id="g4208">
            <path
               inkscape:connector-curvature="0"
               id="path4210"
               style="fill:#00aaa3;fill-opacity:1;fill-rule:nonzero;stroke:none"
               d="M 0,0 C 0,0.593 0.504,1.079 1.096,1.079 1.671,1.079 2.175,0.593 2.175,0 2.175,-0.609 1.653,-1.097 1.078,-1.097 0.487,-1.097 0,-0.609 0,0 m -0.714,-8.931 h 1.218 v 4.962 h -1.218 v 1.288 h 2.716 v -6.25 h 1.201 v -1.253 h -3.917 z" />
          </g>
        </g>
      </g>
    </g>
  </g>
</svg>
